<mxfile host="app.diagrams.net" agent="Mozilla/5.0 (Macintosh; Intel Mac OS X 10_15_7) AppleWebKit/537.36 (KHTML, like Gecko) Chrome/131.0.0.0 Safari/537.36" version="25.0.3">
  <diagram name="Trang-1" id="XpXJu6SbPGH9maaGYE89">
    <mxGraphModel dx="714" dy="510" grid="1" gridSize="10" guides="1" tooltips="1" connect="1" arrows="1" fold="1" page="1" pageScale="1" pageWidth="827" pageHeight="1169" math="0" shadow="0">
      <root>
        <mxCell id="0" />
        <mxCell id="1" parent="0" />
        <mxCell id="H9Sx1j5XsVKw7k_WsBui-27" value="" style="shape=parallelogram;perimeter=parallelogramPerimeter;whiteSpace=wrap;html=1;fixedSize=1;" vertex="1" parent="1">
          <mxGeometry x="310" y="120" width="120" height="60" as="geometry" />
        </mxCell>
        <mxCell id="H9Sx1j5XsVKw7k_WsBui-36" style="edgeStyle=orthogonalEdgeStyle;rounded=0;orthogonalLoop=1;jettySize=auto;html=1;entryX=0.5;entryY=0;entryDx=0;entryDy=0;" edge="1" parent="1" source="H9Sx1j5XsVKw7k_WsBui-13" target="H9Sx1j5XsVKw7k_WsBui-33">
          <mxGeometry relative="1" as="geometry" />
        </mxCell>
        <mxCell id="H9Sx1j5XsVKw7k_WsBui-13" value="" style="shape=parallelogram;perimeter=parallelogramPerimeter;whiteSpace=wrap;html=1;fixedSize=1;" vertex="1" parent="1">
          <mxGeometry x="310" y="380" width="110" height="60" as="geometry" />
        </mxCell>
        <mxCell id="H9Sx1j5XsVKw7k_WsBui-22" style="edgeStyle=orthogonalEdgeStyle;rounded=0;orthogonalLoop=1;jettySize=auto;html=1;entryX=0.5;entryY=0;entryDx=0;entryDy=0;" edge="1" parent="1" target="H9Sx1j5XsVKw7k_WsBui-6">
          <mxGeometry relative="1" as="geometry">
            <mxPoint x="370" y="175" as="sourcePoint" />
          </mxGeometry>
        </mxCell>
        <mxCell id="H9Sx1j5XsVKw7k_WsBui-19" style="edgeStyle=orthogonalEdgeStyle;rounded=0;orthogonalLoop=1;jettySize=auto;html=1;entryX=0.5;entryY=0;entryDx=0;entryDy=0;" edge="1" parent="1" source="H9Sx1j5XsVKw7k_WsBui-1">
          <mxGeometry relative="1" as="geometry">
            <mxPoint x="370" y="115" as="targetPoint" />
          </mxGeometry>
        </mxCell>
        <mxCell id="H9Sx1j5XsVKw7k_WsBui-1" value="" style="ellipse;whiteSpace=wrap;html=1;" vertex="1" parent="1">
          <mxGeometry x="310" y="10" width="120" height="80" as="geometry" />
        </mxCell>
        <mxCell id="H9Sx1j5XsVKw7k_WsBui-2" value="&lt;font style=&quot;vertical-align: inherit;&quot;&gt;&lt;font style=&quot;vertical-align: inherit;&quot;&gt;Start&lt;/font&gt;&lt;/font&gt;" style="text;html=1;align=center;verticalAlign=middle;whiteSpace=wrap;rounded=0;" vertex="1" parent="1">
          <mxGeometry x="340" y="35" width="60" height="30" as="geometry" />
        </mxCell>
        <mxCell id="H9Sx1j5XsVKw7k_WsBui-5" value="&lt;font style=&quot;vertical-align: inherit;&quot;&gt;&lt;font style=&quot;vertical-align: inherit;&quot;&gt;Nhập giá trị n&lt;/font&gt;&lt;/font&gt;" style="text;html=1;align=center;verticalAlign=middle;whiteSpace=wrap;rounded=0;" vertex="1" parent="1">
          <mxGeometry x="340" y="130" width="60" height="40" as="geometry" />
        </mxCell>
        <mxCell id="H9Sx1j5XsVKw7k_WsBui-40" style="edgeStyle=orthogonalEdgeStyle;rounded=0;orthogonalLoop=1;jettySize=auto;html=1;entryX=0.5;entryY=0;entryDx=0;entryDy=0;" edge="1" parent="1" source="H9Sx1j5XsVKw7k_WsBui-6" target="H9Sx1j5XsVKw7k_WsBui-23">
          <mxGeometry relative="1" as="geometry" />
        </mxCell>
        <mxCell id="H9Sx1j5XsVKw7k_WsBui-46" style="edgeStyle=orthogonalEdgeStyle;rounded=0;orthogonalLoop=1;jettySize=auto;html=1;" edge="1" parent="1" source="H9Sx1j5XsVKw7k_WsBui-6">
          <mxGeometry relative="1" as="geometry">
            <mxPoint x="520" y="520" as="targetPoint" />
          </mxGeometry>
        </mxCell>
        <mxCell id="H9Sx1j5XsVKw7k_WsBui-6" value="" style="rhombus;whiteSpace=wrap;html=1;" vertex="1" parent="1">
          <mxGeometry x="300" y="205" width="140" height="55" as="geometry" />
        </mxCell>
        <mxCell id="H9Sx1j5XsVKw7k_WsBui-16" value="&lt;font style=&quot;vertical-align: inherit;&quot;&gt;&lt;font style=&quot;vertical-align: inherit;&quot;&gt;các ước của n&lt;/font&gt;&lt;/font&gt;" style="text;html=1;align=center;verticalAlign=middle;whiteSpace=wrap;rounded=0;" vertex="1" parent="1">
          <mxGeometry x="334" y="395" width="60" height="30" as="geometry" />
        </mxCell>
        <mxCell id="H9Sx1j5XsVKw7k_WsBui-48" style="edgeStyle=orthogonalEdgeStyle;rounded=0;orthogonalLoop=1;jettySize=auto;html=1;entryX=0;entryY=0.5;entryDx=0;entryDy=0;" edge="1" parent="1" source="H9Sx1j5XsVKw7k_WsBui-23" target="H9Sx1j5XsVKw7k_WsBui-6">
          <mxGeometry relative="1" as="geometry">
            <mxPoint x="260" y="230" as="targetPoint" />
            <Array as="points">
              <mxPoint x="280" y="330" />
              <mxPoint x="280" y="233" />
            </Array>
          </mxGeometry>
        </mxCell>
        <mxCell id="H9Sx1j5XsVKw7k_WsBui-23" value="" style="rounded=0;whiteSpace=wrap;html=1;" vertex="1" parent="1">
          <mxGeometry x="315" y="300" width="110" height="47.5" as="geometry" />
        </mxCell>
        <mxCell id="H9Sx1j5XsVKw7k_WsBui-25" value="&lt;font style=&quot;vertical-align: inherit;&quot;&gt;&lt;font style=&quot;vertical-align: inherit;&quot;&gt;if&lt;/font&gt;&lt;/font&gt;&lt;div&gt;&lt;font style=&quot;vertical-align: inherit;&quot;&gt;&lt;font style=&quot;vertical-align: inherit;&quot;&gt;&lt;font style=&quot;vertical-align: inherit;&quot;&gt;&lt;font style=&quot;vertical-align: inherit;&quot;&gt;N&amp;gt;0&lt;/font&gt;&lt;/font&gt;&lt;/font&gt;&lt;/font&gt;&lt;/div&gt;&lt;div&gt;&lt;font style=&quot;vertical-align: inherit;&quot;&gt;&lt;font style=&quot;vertical-align: inherit;&quot;&gt;N % i =0&lt;/font&gt;&lt;/font&gt;&lt;/div&gt;" style="text;html=1;align=center;verticalAlign=middle;whiteSpace=wrap;rounded=0;" vertex="1" parent="1">
          <mxGeometry x="340" y="212.5" width="60" height="30" as="geometry" />
        </mxCell>
        <mxCell id="H9Sx1j5XsVKw7k_WsBui-26" value="&lt;font style=&quot;vertical-align: inherit;&quot;&gt;&lt;font style=&quot;vertical-align: inherit;&quot;&gt;for i=1, i&amp;lt;=n&lt;/font&gt;&lt;/font&gt;" style="text;html=1;align=center;verticalAlign=middle;whiteSpace=wrap;rounded=0;" vertex="1" parent="1">
          <mxGeometry x="334" y="308.75" width="80" height="30" as="geometry" />
        </mxCell>
        <mxCell id="H9Sx1j5XsVKw7k_WsBui-33" value="" style="ellipse;whiteSpace=wrap;html=1;" vertex="1" parent="1">
          <mxGeometry x="305" y="470" width="120" height="80" as="geometry" />
        </mxCell>
        <mxCell id="H9Sx1j5XsVKw7k_WsBui-35" value="End&amp;nbsp;" style="text;html=1;align=center;verticalAlign=middle;whiteSpace=wrap;rounded=0;" vertex="1" parent="1">
          <mxGeometry x="334" y="495" width="60" height="30" as="geometry" />
        </mxCell>
        <mxCell id="H9Sx1j5XsVKw7k_WsBui-41" style="edgeStyle=orthogonalEdgeStyle;rounded=0;orthogonalLoop=1;jettySize=auto;html=1;entryX=0.582;entryY=0.058;entryDx=0;entryDy=0;entryPerimeter=0;" edge="1" parent="1" source="H9Sx1j5XsVKw7k_WsBui-26" target="H9Sx1j5XsVKw7k_WsBui-13">
          <mxGeometry relative="1" as="geometry" />
        </mxCell>
        <mxCell id="H9Sx1j5XsVKw7k_WsBui-44" value="" style="endArrow=classic;html=1;rounded=0;entryX=1.008;entryY=0.644;entryDx=0;entryDy=0;entryPerimeter=0;" edge="1" parent="1" target="H9Sx1j5XsVKw7k_WsBui-33">
          <mxGeometry width="50" height="50" relative="1" as="geometry">
            <mxPoint x="520" y="520" as="sourcePoint" />
            <mxPoint x="420" y="340" as="targetPoint" />
          </mxGeometry>
        </mxCell>
        <mxCell id="H9Sx1j5XsVKw7k_WsBui-45" value="false" style="text;html=1;align=center;verticalAlign=middle;whiteSpace=wrap;rounded=0;" vertex="1" parent="1">
          <mxGeometry x="440" y="212.5" width="60" height="30" as="geometry" />
        </mxCell>
        <mxCell id="H9Sx1j5XsVKw7k_WsBui-47" value="true" style="text;html=1;align=center;verticalAlign=middle;whiteSpace=wrap;rounded=0;" vertex="1" parent="1">
          <mxGeometry x="320" y="260" width="60" height="30" as="geometry" />
        </mxCell>
      </root>
    </mxGraphModel>
  </diagram>
</mxfile>
